<?xml version="1.0" encoding="utf-8"?>
<svg version="1.1" id="Layer_1" xmlns="http://www.w3.org/2000/svg" xmlns:xlink="http://www.w3.org/1999/xlink" x="0px" y="0px"
	 viewBox="0 0 178.5 52" style="enable-background:new 0 0 178.5 52;" xml:space="preserve">
<g>
	<path d="M3.2,35c-1.2-1.2-1.8-2.7-1.8-4.6c0-2.8,1.3-5,3.9-6.4c2.6-1.5,5.8-2.3,9.5-2.4v-2.5c0-2.9-1.1-4.4-3.3-4.4
		c-1.4,0-2.6,0.4-3.5,1.3c0.4,0.4,0.6,1.1,0.6,1.8s-0.3,1.5-0.8,2.1c-0.5,0.6-1.3,0.9-2.3,0.9c-1,0-1.7-0.3-2.3-0.9
		c-0.5-0.6-0.8-1.4-0.8-2.3c0-1.2,0.4-2.4,1.3-3.3c0.9-1,2.1-1.7,3.7-2.2c1.6-0.5,3.3-0.8,5.1-0.8c5.9,0,8.9,3.1,8.9,9.2l0,7.9
		c0,1.5-0.1,2.9-0.2,4.2c1.1-0.1,2.1-0.1,3.1-0.1V36h-9.1c-0.1-0.4-0.1-1.2-0.2-2.2h0c-2,2-4.3,3-7.1,3C6,36.8,4.4,36.2,3.2,35z
		 M14.8,30.3V25c-1.9,0.2-3.4,0.7-4.7,1.4c-1.2,0.8-1.8,1.8-1.8,3.1c0,0.9,0.3,1.5,0.8,1.9c0.5,0.4,1.2,0.6,1.9,0.6
		C12.4,32.1,13.7,31.5,14.8,30.3z"/>
	<path d="M29.1,47.2c-1.7-1.2-2.6-2.7-2.6-4.5c0-1.1,0.4-2.2,1.1-3.1c0.7-1,1.9-1.8,3.5-2.4c-1.2-0.4-2.2-0.9-2.7-1.6
		c-0.6-0.7-0.8-1.6-0.8-2.6c0-1,0.4-1.9,1.1-2.9c0.8-1,1.9-1.7,3.5-2.2v0c-1.4-0.6-2.6-1.5-3.4-2.7c-0.8-1.2-1.3-2.7-1.3-4.4
		c0-1.8,0.5-3.4,1.5-4.8c1-1.4,2.3-2.6,4-3.4c1.6-0.8,3.4-1.2,5.2-1.2c1,0,2,0.1,3,0.4c1.1,0.2,2,0.6,2.7,1.1c0.6-1.7,1.4-3,2.4-4.2
		c1-1.1,2.2-1.7,3.6-1.7c1.1,0,1.9,0.3,2.4,0.8C53,8.3,53.3,9,53.3,10c0,0.7-0.2,1.4-0.7,2c-0.5,0.6-1.2,0.9-2.2,0.9
		c-0.5,0-1-0.2-1.5-0.6C48.4,12,48.1,11.6,48,11c-0.4,0.1-0.8,0.5-1.2,1.2c-0.4,0.7-0.7,1.3-0.7,1.9c0.9,0.8,1.6,1.7,2.1,2.8
		c0.5,1.1,0.7,2.2,0.7,3.4c0,1.8-0.5,3.4-1.5,4.9c-1,1.5-2.4,2.6-4,3.4c-1.7,0.8-3.4,1.2-5.3,1.2l-1.3,0c-0.7-0.1-1.2-0.1-1.5-0.1
		c-0.7,0-1.3,0.1-1.8,0.4c-0.5,0.3-0.7,0.6-0.7,1.1c0,0.6,0.4,1,1.3,1.2c0.9,0.2,2.5,0.4,4.8,0.6c4,0.2,7.1,0.9,9.2,2
		c2.1,1.1,3.1,3,3.1,5.6c0,1.7-0.7,3.2-2,4.5c-1.3,1.3-3,2.3-5.1,2.9c-2.1,0.7-4.2,1-6.5,1C33.6,49,30.8,48.4,29.1,47.2z M42.6,45.1
		c1-0.4,1.8-0.9,2.4-1.5c0.5-0.6,0.8-1.2,0.8-1.8c0-1-0.6-1.7-1.7-2.3c-1.1-0.5-2.9-0.8-5.2-0.9c-0.3,0-0.7,0-1.2,0
		c-0.3,0-0.9-0.1-1.7-0.1c-0.8,0-1.5-0.1-2-0.2c-0.5,0.4-0.9,0.9-1.1,1.5c-0.3,0.6-0.4,1.2-0.4,1.8c0,1.2,0.6,2.2,1.8,3
		c1.2,0.7,2.7,1.1,4.7,1.1C40.3,45.7,41.5,45.5,42.6,45.1z M41.1,25c0.7-1.1,1.1-2.4,1.1-3.8c0-1.8-0.4-3.4-1.1-4.8
		c-0.7-1.3-1.7-2-3-2c-1.2,0-2.2,0.6-2.9,1.7c-0.7,1.1-1.1,2.4-1.1,4c0,1.8,0.4,3.3,1.1,4.6c0.7,1.3,1.7,1.9,3,1.9
		C39.4,26.6,40.3,26.1,41.1,25z"/>
	<path d="M59,35.3c-1.9-1-3.3-2.4-4.4-4.3c-1.1-1.9-1.6-4-1.6-6.5c0-2.6,0.5-4.9,1.6-6.9c1.1-2,2.6-3.6,4.4-4.7
		c1.8-1.1,3.9-1.7,6.1-1.7c2.3,0,4.4,0.5,6.2,1.5c1.8,1,3.3,2.4,4.3,4.3c1.1,1.9,1.6,4.1,1.6,6.6c0,2.7-0.5,5-1.5,7
		c-1,2-2.4,3.5-4.2,4.6c-1.8,1.1-3.9,1.6-6.2,1.6C62.9,36.8,60.8,36.3,59,35.3z M69.1,30.9c0.7-1.6,1.1-3.7,1.1-6.1
		c0-2.8-0.4-5.1-1.2-7.2c-0.8-2-2.1-3-3.8-3c-1.8,0-3,0.8-3.8,2.5c-0.8,1.7-1.2,3.7-1.2,6.1c0,2.8,0.4,5.2,1.3,7.2c0.9,2,2.2,3,4,3
		C67.1,33.4,68.4,32.6,69.1,30.9z"/>
	<path d="M80.7,32.9c1.2,0,2-0.3,2.3-1s0.5-1.8,0.5-3.3v-8.1c0-1.4,0.1-2.8,0.2-4.1l-3.4,0.1V13c2,0,3.6-0.1,4.9-0.4
		c1.2-0.3,2.1-0.6,2.5-1h2.4c0.1,0.5,0.1,1.1,0.1,1.9c0,0.8,0,1.5,0,2.3h0.1c2.2-2.9,4.5-4.4,6.9-4.4c1.2,0,2.2,0.3,3,1
		c0.8,0.7,1.2,1.7,1.2,3c0,0.8-0.3,1.6-0.8,2.3c-0.5,0.7-1.4,1.1-2.4,1.1c-0.8,0-1.5-0.2-2.1-0.6c-0.6-0.4-1-1.1-1.1-2.2
		c-0.9,0-1.8,0.5-2.8,1.6c-0.9,1-1.6,2.1-1.9,3.1v7.8c0,1.5-0.1,2.9-0.2,4.2c1-0.1,2.1-0.1,3.1-0.1V36H80.7V32.9z"/>
	<path d="M107.5,34.3c-1.2-1.7-1.8-4.4-1.8-8.1v-5.5c0-1.3,0-2.7,0.1-4.2l-3.4,0.1V13c2,0,3.6-0.1,4.9-0.4c1.2-0.3,2.1-0.6,2.5-1
		h2.6v14.7c0,2.1,0.3,3.7,0.8,4.7c0.5,1,1.4,1.5,2.6,1.5c0.8,0,1.6-0.2,2.5-0.7c0.8-0.4,1.6-1,2.1-1.6v-9.4c0-1.5,0.1-2.9,0.2-4.2
		l-3.4,0.1V13c2,0,3.6-0.1,4.9-0.4c1.2-0.3,2.1-0.6,2.5-1h2.6v16.8c0,1.5-0.1,2.9-0.2,4.2c1-0.1,2.1-0.1,3.1-0.1V36h-9.1l-0.3-2.5h0
		c-1.2,1-2.3,1.8-3.4,2.4c-1.1,0.6-2.3,0.9-3.7,0.9C110.8,36.8,108.8,35.9,107.5,34.3z"/>
	<path d="M133.4,32.9c1.2,0,2-0.3,2.3-1s0.5-1.8,0.5-3.3v-8.1c0-1.4,0.1-2.8,0.2-4.1l-3.4,0.1V13c2,0,3.6-0.1,4.9-0.4
		c1.2-0.3,2.1-0.6,2.5-1h2.4c0,0.1,0.1,0.9,0.2,2.4h0.1c1-0.8,2.1-1.4,3.4-1.9c1.2-0.5,2.5-0.7,3.6-0.7c1.4,0,2.6,0.3,3.6,0.8
		c1,0.5,1.8,1.3,2.3,2.4c1.2-1,2.4-1.7,3.8-2.3c1.4-0.6,2.7-0.9,4-0.9c2.7,0,4.6,0.8,5.9,2.3c1.3,1.5,1.9,4.1,1.9,7.7v7.1
		c0,1.5-0.1,2.9-0.2,4.2c1-0.1,2.1-0.1,3.1-0.1V36h-12.1v-3.1c1,0,1.7-0.3,2-1c0.3-0.7,0.4-1.8,0.4-3.2v-7.3c0-2-0.4-3.4-1-4.3
		c-0.6-0.8-1.6-1.3-2.8-1.3c-1.4,0-2.8,0.5-4.1,1.6c0.3,1.3,0.4,2.8,0.4,4.6v6.4c0,1.5-0.1,2.9-0.2,4.2c1-0.1,2.1-0.1,3.1-0.1V36
		H148v-3.1c1.1,0,1.8-0.3,2.2-1c0.3-0.7,0.5-1.8,0.5-3.3l0-7.5c0-2-0.3-3.4-0.9-4.2c-0.6-0.8-1.4-1.2-2.6-1.3
		c-1.4,0-2.8,0.6-4.1,1.8v10.8c0,1.5-0.1,2.9-0.2,4.2c1-0.1,2-0.1,2.9-0.1V36h-12.3V32.9z"/>
</g>
</svg>
